<?xml version="1.0" encoding="UTF-8"?>
<svg width="120px" height="120px" viewBox="0 0 120 120" version="1.1" xmlns="http://www.w3.org/2000/svg" xmlns:xlink="http://www.w3.org/1999/xlink">
    <title>0C4ADD7D-A6D1-4840-9891-41A6C5555C07</title>
    <g id="Page-1" stroke="none" stroke-width="1" fill="none" fill-rule="evenodd">
        <g id="BwP-Collection" transform="translate(-780.000000, -230.000000)">
            <g id="Banner" transform="translate(0.000000, 138.000000)">
                <g id="PrimeDay22" transform="translate(-35.000000, 0.000000)">
                    <g id="Buy-with-Prime" transform="translate(815.000000, 92.000000)">
                        <path d="M60,120 C93.137086,120 120,93.1370799 120,60 C120,26.8629105 93.137086,0 60,0 C26.862914,0 0,26.8629105 0,60 C0,93.1370799 26.862914,120 60,120 Z" id="circle" fill="#1A99FF"></path>
                        <path d="M23.1403825,79.6346236 C22.9414958,79.6509268 22.7435522,79.5935776 22.5841898,79.4734696 C22.5178574,79.3953268 22.4681402,79.3044891 22.438067,79.2064971 C22.4079938,79.1085087 22.398197,79.0054155 22.4092742,78.9035151 L22.4092742,59.4033648 C22.3985426,59.3014799 22.4085026,59.1984791 22.4385602,59.1005375 C22.4686178,59.0025995 22.5181526,58.9117403 22.5841898,58.8334163 C22.7438258,58.7140067 22.9417442,58.6573607 23.1403825,58.6742255 L25.245265,58.6742255 C25.4379574,58.6560767 25.6302538,58.7126567 25.7824149,58.8322655 C25.9345773,58.9518719 26.0349729,59.1253643 26.0628489,59.3168903 L26.2593837,60.077484 C26.870432,59.4940752 27.5903239,59.0366267 28.3780241,58.7312207 C29.1815464,58.4050667 30.0402291,58.2362663 30.907421,58.2339887 C32.7967703,58.2339887 34.2923973,58.9264463 35.3943007,60.3113592 C36.4962029,61.6962721 37.0464976,63.5666223 37.0451896,65.9224169 C37.0451896,67.5418614 36.7726625,68.9549443 36.227607,70.1616656 C35.758305,71.2769001 34.993064,72.242623 34.0146285,72.9544186 C33.0722602,73.6107023 31.94757,73.9544339 30.7993262,73.9370915 C30.0233319,73.9414715 29.2522996,73.8131891 28.5195281,73.5577811 C27.842163,73.3303343 27.2158831,72.9724582 26.6760356,72.5043538 L26.6760356,78.9074499 C26.7004088,79.0081623 26.6985224,79.1134479 26.670554,79.2132219 C26.6425856,79.3129959 26.5894724,79.4039152 26.5163,79.4772856 C26.4431288,79.5506536 26.3523464,79.6040128 26.2526481,79.63225 C26.1529497,79.6604848 26.0476701,79.6626616 25.9468917,79.6385572 L23.1403825,79.6346236 Z M29.5415068,70.7178561 C30.6342386,70.7178561 31.4387185,70.3477172 31.9549488,69.6074372 C32.4711791,68.8671583 32.7292955,67.6977762 32.7292955,66.0992969 C32.7292955,64.4811628 32.4757643,63.3019551 31.9687044,62.5616762 C31.4616469,61.8213961 30.6525818,61.4532229 29.5415068,61.457123 C28.5328121,61.4550829 27.5424607,61.7267845 26.6760356,62.243291 L26.6760356,69.9277892 C27.5383099,70.4539724 28.5314441,70.7264373 29.5415068,70.7139273 L29.5415068,70.7178561 Z M40.6581911,73.6124855 C40.5584891,73.6293323 40.4562035,73.6220387 40.3598987,73.5912239 C40.2635928,73.5604091 40.176072,73.5069671 40.1046696,73.4353727 C40.0332672,73.3637771 39.9800604,73.2761111 39.9495048,73.1797235 C39.9189492,73.0833358 39.9119316,72.9810334 39.929046,72.881377 L39.929046,59.4030336 C39.9178524,59.3011283 39.9275952,59.1980099 39.9576732,59.1000023 C39.9877512,59.0019959 40.0375308,58.9111667 40.1039616,58.8330839 C40.262382,58.7126039 40.4598671,58.6551779 40.6581911,58.6719251 L42.7630772,58.6719251 C42.9558968,58.6542215 43.1481883,58.7109251 43.3005571,58.8304091 C43.4529271,58.9498943 43.5538399,59.1231179 43.5826255,59.3145971 L43.9619358,60.8868733 C44.7480749,60.0299832 45.4837684,59.4213792 46.1690187,59.0610647 C46.8498914,58.7022239 47.6084269,58.5159635 48.3780671,58.5186275 L48.7868567,58.5186275 C48.9964883,58.4984147 49.2062566,58.5557531 49.376461,58.6797887 C49.443193,58.7576843 49.4931682,58.8484907 49.5232618,58.9465499 C49.5533554,59.0446091 49.5629266,59.1478163 49.551379,59.2497371 L49.551379,61.7064193 C49.5686854,61.9044914 49.5119698,62.1019514 49.3921858,62.2606466 C49.3141042,62.3270786 49.223275,62.3768606 49.1252686,62.4069398 C49.027261,62.4370166 48.9241427,62.4467606 48.8222375,62.435567 C48.6846635,62.435567 48.5097467,62.435561 48.2955228,62.4060806 C48.0813012,62.3766014 47.8061532,62.3785694 47.4759745,62.3785694 C46.9253054,62.3925518 46.3771742,62.4583538 45.8388411,62.5751042 C45.277672,62.6783426 44.7289337,62.840393 44.201709,63.058577 L44.201709,72.8853058 C44.2202046,73.083799 44.1625998,73.2819083 44.0405514,73.4395343 C43.962813,73.5066143 43.8720762,73.5569447 43.774011,73.5873791 C43.6759458,73.6178135 43.5726571,73.6276955 43.4705995,73.6164143 L40.6581911,73.6124855 Z M53.7331143,56.3627613 C53.0822848,56.3944641 52.4441429,56.1749505 51.9505446,55.7495745 C51.5168419,55.3016144 51.2743579,54.7025444 51.2743579,54.0790351 C51.2743579,53.4555235 51.5168419,52.856451 51.9505446,52.4084922 C52.4601797,52.0111782 53.0878888,51.7954145 53.7340971,51.7954145 C54.3803054,51.7954145 55.0080097,52.0111782 55.5176437,52.4084922 C55.9513464,52.856451 56.1938364,53.4555235 56.1938364,54.0790351 C56.1938364,54.7025444 55.9513464,55.3016144 55.5176437,55.7495745 C55.0228345,56.1741897 54.3844094,56.3935605 53.7331143,56.3627613 Z M52.329861,73.6125815 C52.230081,73.6298939 52.1275986,73.6229291 52.0310766,73.5922787 C51.9345558,73.5616271 51.8468274,73.5081923 51.7753146,73.4364863 C51.7038018,73.3647827 51.6506023,73.2769139 51.6202123,73.1803103 C51.5898223,73.0837078 51.5831335,72.9812062 51.6007135,72.881473 L51.6007135,59.4031464 C51.5897131,59.3013971 51.5993599,59.1984767 51.6290767,59.1005423 C51.6587947,59.0026079 51.7079742,58.9116779 51.7736646,58.8331991 C51.933027,58.7130923 52.1309742,58.6556293 52.329861,58.6720391 L55.1363725,58.6720391 C55.2372109,58.6481075 55.3424929,58.6503863 55.4422045,58.6786487 C55.5419149,58.7069111 55.6327321,58.7602151 55.7060148,58.8334991 C55.7792988,58.9067819 55.83261,58.9976051 55.8608712,59.0973167 C55.8891336,59.1970271 55.8914124,59.3023079 55.8674808,59.4031464 L55.8674808,72.881473 C55.8859764,73.0799662 55.8283704,73.2780743 55.706322,73.4357015 C55.6285825,73.5027815 55.5378457,73.5531059 55.4397817,73.5835403 C55.3417165,73.6139747 55.2384301,73.6238627 55.1363725,73.6125815 L52.329861,73.6125815 Z M60.2188062,73.6126823 C60.118959,73.6298867 60.0164406,73.6228619 59.9198718,73.5922067 C59.823303,73.5615503 59.7355062,73.5081587 59.6638639,73.4365151 C59.5922215,73.3648727 59.5388239,73.2770759 59.5081675,73.1805083 C59.4775123,73.0839382 59.4704935,72.9814198 59.4876979,72.8815714 L59.4876979,59.4032052 C59.4769651,59.3013203 59.4869275,59.1983183 59.5169851,59.1003767 C59.5470427,59.0024375 59.5965787,58.9115795 59.6626159,58.8332543 C59.8218102,58.7128127 60.019881,58.6554179 60.2188062,58.6720943 L62.3236887,58.6720943 C62.5162838,58.6544363 62.7083294,58.7111963 62.8603802,58.8307175 C63.0124309,58.9502387 63.1129441,59.1234503 63.1412725,59.3147687 L63.3751489,60.100908 C64.2421272,59.5042044 65.180323,59.0182643 66.1679025,58.6544075 C66.99017,58.3724075 67.8535698,58.2289499 68.7228497,58.2298861 C70.4785574,58.2298861 71.7160716,58.8535655 72.4353875,60.100908 C73.3059958,59.5031172 74.2516125,59.0227043 75.2477959,58.6720943 C76.1249826,58.3805819 77.0434756,58.2325907 77.9678319,58.2338255 C79.3317805,58.2338255 80.3884823,58.6144487 81.1379326,59.3756928 C81.8873853,60.136938 82.2634185,61.1988805 82.2660393,62.5615226 L82.2660393,72.8815714 C82.2827865,73.0798954 82.2253665,73.2773819 82.1048853,73.4358023 C82.0266633,73.5027359 81.9355653,73.5529523 81.8372121,73.5833723 C81.7388577,73.6137899 81.635323,73.6237667 81.532969,73.6126823 L78.7244906,73.6126823 C78.6246434,73.6298867 78.522125,73.6228619 78.4255562,73.5922067 C78.3289863,73.5615503 78.2411907,73.5081587 78.1695483,73.4365151 C78.0979059,73.3648727 78.0445083,73.2770759 78.0138519,73.1805083 C77.9831967,73.0839382 77.9761779,72.9814198 77.9933823,72.8815714 L77.9933823,63.4970307 C77.9933823,62.1723854 77.39854,61.5100585 76.208853,61.5100585 C75.1035787,61.5218113 74.0149749,61.7810377 73.0230238,62.2686878 L73.0230238,72.8815714 C73.0415194,73.0800658 72.9839123,73.2781763 72.8618651,73.4358023 C72.7840631,73.5027815 72.6933239,73.5530447 72.5952755,73.5834731 C72.4972283,73.6139027 72.3939683,73.6238447 72.2919156,73.6126823 L69.4854052,73.6126823 C69.385558,73.6298867 69.2830396,73.6228619 69.1864708,73.5922067 C69.089902,73.5615503 69.0021052,73.5081587 68.9304629,73.4365151 C68.8588193,73.3648727 68.8054277,73.2770759 68.7747725,73.1805083 C68.7441173,73.0839382 68.7370925,72.9814198 68.7542957,72.8815714 L68.7542957,63.4970307 C68.7542957,62.1723854 68.1601122,61.5100585 66.9717332,61.5100585 C65.8530381,61.5154537 64.7514059,61.7848021 63.756426,62.296199 L63.756426,72.8796046 C63.7731732,73.0779286 63.7157472,73.2754151 63.5952673,73.4338355 C63.5170429,73.5007679 63.4259533,73.5509903 63.3275989,73.5814103 C63.2292445,73.6118291 63.1257037,73.6218715 63.0233509,73.6107155 L60.2188062,73.6126823 Z M92.4055253,74.0508983 C89.9881473,74.0508983 88.1315496,73.3879211 86.8357298,72.0619678 C85.53991,70.7360145 84.8920037,68.8361791 84.8920037,66.3624617 C84.8920037,63.8297859 85.5549808,61.8415093 86.880935,60.3976344 C88.2068904,58.9537595 90.0484185,58.2331319 92.4055253,58.2357455 C94.2175767,58.2357455 95.6352505,58.6746827 96.6585419,59.552538 C97.6818333,60.430392 98.1934785,61.5997741 98.1934785,63.060683 C98.1934785,64.5202792 97.6431814,65.6261153 96.5425871,66.3781877 C95.4419917,67.1302602 93.8192655,67.5056382 91.6744158,67.5043278 C90.699686,67.5196758 89.7269469,67.4113758 88.7794619,67.1820138 C88.8973823,68.4922447 89.290453,69.4277504 89.9586705,69.9885296 C90.6268892,70.5493076 91.6449415,70.8316629 93.0128236,70.8355941 C93.5457964,70.8367641 94.0782591,70.8026241 94.6067174,70.7333961 C95.3307001,70.62329 96.0478836,70.4723696 96.7548419,70.2813644 C96.8124647,70.2614756 96.8716235,70.2463604 96.9317219,70.236164 C96.9798599,70.22849 97.0284406,70.2238928 97.0771618,70.2224048 C97.4073406,70.2224048 97.574395,70.446452 97.574395,70.8945513 L97.574395,72.2388478 C97.5939982,72.4663678 97.5483166,72.6947614 97.4427142,72.8972398 C97.3085146,73.0563754 97.1309974,73.1731295 96.9317219,73.2333191 C95.4845581,73.7838935 93.9479631,74.0617559 92.3996297,74.0528651 L92.4055253,74.0508983 Z M91.4346427,64.8727324 C92.4291089,64.8727324 93.1497364,64.722052 93.5965264,64.4206984 C94.0433151,64.1193459 94.2673683,63.6561831 94.2686775,63.0312026 C94.2686775,61.8035173 93.537568,61.1896741 92.075349,61.1896741 C90.2043369,61.1896741 89.1227386,62.339399 88.8305567,64.6388548 C89.6882109,64.801612 90.5597516,64.8799456 91.4326819,64.8727324 L91.4346427,64.8727324 Z M22.5481502,43.4837963 C22.4832926,43.4929727 22.4171894,43.4869487 22.3550618,43.4661923 C22.2929343,43.4454371 22.2364839,43.4105243 22.1901651,43.3642067 C22.1438475,43.3178891 22.1089323,43.2614327 22.0881771,43.1993051 C22.0674207,43.1371775 22.0613931,43.0710754 22.0705707,43.006219 L22.0705707,30.7149517 C22.0613931,30.6500953 22.0674207,30.583992 22.0881771,30.5218632 C22.1089323,30.4597356 22.1438475,30.4032852 22.1901651,30.3569676 C22.2364839,30.3106488 22.2929343,30.2757336 22.3550618,30.2549784 C22.4171894,30.2342232 22.4832926,30.2281956 22.5481502,30.237372 L26.8286756,30.237372 C27.5959663,30.2209392 28.3576901,30.3711396 29.06131,30.6776101 C29.6633932,30.9417673 30.1799475,31.3684873 30.553007,31.909883 C30.9144362,32.4564926 31.1008933,33.100181 31.0875817,33.7553415 C31.0875817,35.0799844 30.4979774,35.9971457 29.31877,36.5068241 C30.0491475,36.6923837 30.701621,37.105341 31.1819173,37.6860318 C31.6197577,38.2781587 31.8423264,39.0020215 31.8127956,39.737852 C31.8316596,40.2622652 31.7252592,40.7836233 31.5024145,41.2587093 C31.2795685,41.7337941 30.9466946,42.1489234 30.5313878,42.4696834 C29.6784279,43.1457623 28.5319757,43.4837963 27.0920311,43.4837963 L22.5481502,43.4837963 Z M24.7847159,35.7619577 L26.4473972,35.7619577 C27.6842562,35.7619577 28.3020318,35.188078 28.3007234,34.0403163 C28.3007234,32.868971 27.7340442,32.2832978 26.6006948,32.2832978 L24.7847159,32.2832978 L24.7847159,35.7619577 Z M24.7847159,41.4378741 L27.0389695,41.4378741 C28.3400285,41.4378741 28.9899029,40.8266517 28.9885944,39.6042068 C28.9885944,38.3424547 28.2941694,37.7115786 26.9053232,37.7115786 L24.7847159,37.7115786 L24.7847159,41.4378741 Z M36.6345629,43.7688072 C35.7684966,43.7688072 35.0930707,43.5106919 34.608284,42.9944614 C34.1234973,42.478231 33.8817585,41.7674337 33.8830689,40.8620661 L33.8830689,34.1936559 C33.8738913,34.1287995 33.8799189,34.0626987 33.9006753,34.0005711 C33.9214305,33.9384423 33.9563469,33.8819895 34.0026645,33.8356719 C34.0489821,33.7893543 34.1054337,33.7544415 34.1675613,33.7336863 C34.2296889,33.7129299 34.2957933,33.7069023 34.3606508,33.7160799 L36.1962894,33.7160799 C36.261147,33.7069023 36.3272478,33.7129299 36.3893765,33.7336863 C36.4515041,33.7544415 36.5079557,33.7893543 36.5542733,33.8356719 C36.6005909,33.8819895 36.6355073,33.9384423 36.6562625,34.0005711 C36.6770177,34.0626987 36.6830453,34.1287995 36.6738689,34.1936559 L36.6738689,40.0896848 C36.6738689,41.1221457 37.1200036,41.6377185 38.0122743,41.6364093 C38.7077918,41.6267853 39.3853801,41.4143577 39.9619056,41.0251869 L39.9619056,34.1936559 C39.9527292,34.1287995 39.9587568,34.0626987 39.9795132,34.0005711 C40.0002684,33.9384423 40.0351812,33.8819895 40.0814988,33.8356719 C40.1278164,33.7893543 40.1842704,33.7544415 40.2463992,33.7336863 C40.3085268,33.7129299 40.3746275,33.7069023 40.4394851,33.7160799 L42.2731593,33.7160799 C42.3381656,33.7065639 42.4044944,33.7123347 42.4668788,33.7329387 C42.5292632,33.7535427 42.585986,33.7884123 42.6325376,33.8347719 C42.6790892,33.8811327 42.7141892,33.9377079 42.7350488,34.0000071 C42.7559096,34.0623063 42.7619552,34.1286111 42.7527068,34.1936559 L42.7527068,43.0062538 C42.7619552,43.0712974 42.7559096,43.1376035 42.7350488,43.1999027 C42.7141892,43.2622019 42.6790892,43.3187795 42.6325376,43.3651403 C42.585986,43.4115011 42.5292632,43.4463671 42.4668788,43.4669711 C42.4044944,43.4875751 42.3381656,43.4933459 42.2731593,43.4838299 L40.8974135,43.4838299 C40.7722187,43.4915543 40.6485587,43.4529671 40.5499799,43.3754087 C40.4513999,43.2978503 40.3847903,43.1867447 40.3628363,43.0632502 L40.189884,42.4520254 C39.6613573,42.8776174 39.0681997,43.2159959 38.4328598,43.4543507 C37.8561651,43.6625375 37.2476836,43.7689391 36.6345629,43.7688072 L36.6345629,43.7688072 Z M46.751135,47.6505002 C46.2670107,47.6480042 45.7853127,47.5819274 45.3183988,47.4539666 C45.1854592,47.424761 45.0667168,47.3504606 44.9823233,47.2436726 C44.9154965,47.1070562 44.8863257,46.9550882 44.8978145,46.8034369 L44.8978145,45.9111685 C44.8978145,45.6183312 45.0177004,45.4709316 45.259438,45.4709316 C45.3717652,45.470388 45.484012,45.4769544 45.59551,45.4905876 C45.7260795,45.5042676 45.8572971,45.5108232 45.9885795,45.5102352 C46.4338922,45.5378424 46.8744134,45.4054092 47.2306801,45.1368204 C47.5235161,44.8891872 47.7731136,44.458776 47.975544,43.8475547 L48.034506,43.6372607 L44.4398885,34.4807176 C44.3683265,34.3303491 44.3231202,34.1688063 44.3062434,34.0031367 C44.3062434,33.8066019 44.4280961,33.7161975 44.6698337,33.7161975 L46.5998018,33.7161975 C46.7538662,33.7066719 46.9072406,33.7436451 47.0400409,33.8223255 C47.1610045,33.9218259 47.2425325,34.0611915 47.2699861,34.2153939 L49.3060846,41.0174565 L51.2380183,34.2134307 C51.2680003,34.0624899 51.3529567,33.9280575 51.4764163,33.8361891 C51.5998759,33.7443207 51.7530486,33.7015611 51.9062406,33.7161975 L53.7792159,33.7161975 C54.0209523,33.7161975 54.1427991,33.8124987 54.1427991,34.0031367 C54.1259223,34.1688063 54.0807183,34.3303491 54.0091575,34.4807176 L50.1275985,44.8027164 C49.7581125,45.8089729 49.3093582,46.5354961 48.7813355,46.982285 C48.2069148,47.4418034 47.4861877,47.679023 46.751135,47.6505002 Z M64.7312591,43.4839727 L63.1078885,43.4839727 C62.9537054,43.4995415 62.7988766,43.4613575 62.669615,43.3758803 C62.5619786,43.2702623 62.4828638,43.1390843 62.4396674,42.994603 L59.6881854,34.4885884 C59.6334223,34.3416051 59.6009647,34.1872539 59.5918855,34.0306623 C59.5918855,33.8262675 59.719635,33.7240695 59.9751294,33.7240695 L61.9050927,33.7240695 C62.0520291,33.7092279 62.1988635,33.7532235 62.3134263,33.8464203 C62.427989,33.9396183 62.5009454,34.0744203 62.5163174,34.2213015 L64.045356,40.7698341 L65.6903469,34.2134415 C65.7207345,34.0627095 65.8057893,33.9285399 65.9291481,33.8367471 C66.0525069,33.7449519 66.2054541,33.7020207 66.3585632,33.7162095 L67.7539578,33.7162095 C67.9071498,33.7015719 68.0603226,33.7443327 68.183781,33.8362011 C68.3072406,33.9280683 68.3921909,34.0625019 68.4221741,34.2134415 L70.1045079,40.7875209 L71.5392121,34.2134415 C71.5545853,34.0665603 71.6275417,33.9317559 71.7421044,33.8385579 C71.8566684,33.7453599 72.0034956,33.7013667 72.150432,33.7162095 L74.0037549,33.7162095 C74.2592493,33.7162095 74.386994,33.8184075 74.386994,34.0228035 C74.3788928,34.1795223 74.346404,34.3340211 74.2906941,34.4807284 L71.5136617,42.9828118 C71.4908281,43.1372843 71.4076501,43.2763883 71.2823761,43.3696067 C71.1571033,43.4628251 70.9999682,43.5025427 70.8454466,43.4800439 L69.2201032,43.4800439 C69.0691624,43.4911427 68.9193689,43.4467427 68.7988565,43.3551827 C68.6783453,43.2636227 68.5954121,43.1312039 68.5656461,42.9828118 L66.9933716,36.6170585 L65.401441,42.9828118 C65.3714686,43.1344283 65.2863814,43.2695603 65.162611,43.3621163 C65.0388394,43.4546723 64.8851639,43.4980847 64.7312591,43.4839727 Z M77.4233092,32.2068158 C76.9988657,32.2295798 76.5818237,32.088923 76.2578658,31.8137461 C75.9762258,31.5208537 75.8189094,31.1302969 75.8189094,30.7239637 C75.8189094,30.317628 75.9762258,29.9270736 76.2578658,29.63418 C76.5890585,29.3721491 76.9983005,29.2282847 77.4206044,29.2254359 C77.8429071,29.2225883 78.2540547,29.3609183 78.5887526,29.6184576 C78.8703914,29.9113488 79.0277017,30.3019056 79.0277017,30.7082401 C79.0277017,31.1145745 78.8703914,31.5051301 78.5887526,31.7980237 C78.2671659,32.0788706 77.8498671,32.225243 77.4233092,32.2068158 L77.4233092,32.2068158 Z M76.5054941,43.4839619 C76.4406365,43.4931395 76.3745357,43.4871155 76.3124094,43.4663591 C76.2502818,43.4456039 76.1938302,43.4106911 76.1475126,43.3643735 C76.1011962,43.3180559 76.0662774,43.2615983 76.0455222,43.1994707 C76.0247658,43.1373431 76.0187418,43.0712422 76.0279182,43.0063846 L76.0279182,34.1937795 C76.0187418,34.1289219 76.0247658,34.0628211 76.0455222,34.0006935 C76.0662774,33.9385659 76.1011962,33.8821119 76.1475126,33.8357943 C76.1938302,33.7894767 76.2502818,33.7545639 76.3124094,33.7338087 C76.3745357,33.7130535 76.4406365,33.7070259 76.5054941,33.7162023 L78.341117,33.7162023 C78.4059746,33.7070259 78.4720814,33.7130535 78.534209,33.7338087 C78.5963366,33.7545639 78.652787,33.7894767 78.6991046,33.8357943 C78.7454222,33.8821119 78.7803338,33.9385659 78.8010902,34.0006935 C78.8218454,34.0628211 78.8278754,34.1289219 78.818699,34.1937795 L78.818699,43.0063846 C78.8278754,43.0712422 78.8218454,43.1373431 78.8010902,43.1994707 C78.7803338,43.2615983 78.7454222,43.3180559 78.6991046,43.3643735 C78.652787,43.4106911 78.5963366,43.4456039 78.534209,43.4663591 C78.4720814,43.4871155 78.4059746,43.4931395 78.341117,43.4839619 L76.5054941,43.4839619 Z M85.0740124,43.6370148 C83.9904606,43.6370148 83.1912235,43.3821743 82.6763072,42.8724946 C82.1613897,42.362815 81.9032757,41.5727457 81.9019665,40.5022868 L81.9019665,35.7854549 L80.9075087,35.7854549 C80.8426523,35.7946313 80.7765515,35.7886037 80.7144251,35.7678485 C80.6522975,35.7470921 80.5958471,35.7121769 80.5495295,35.6658593 C80.5032119,35.6195416 80.4683003,35.5630912 80.4475439,35.5009624 C80.4267887,35.4388348 80.4207587,35.3727316 80.4299351,35.307874 L80.4299351,34.5217348 C80.4216875,34.3903552 80.4648587,34.2609171 80.5503155,34.1607891 C80.6357723,34.0606611 80.7568187,33.9976935 80.8878611,33.9851967 L81.9786165,33.7572147 L82.3225497,31.5835417 C82.3270389,31.4354425 82.3882496,31.2947269 82.4935328,31.1904721 C82.5990152,31.1145373 82.7273516,31.0770793 82.8571196,31.0843441 L84.2151642,31.0843441 C84.2800206,31.0751689 84.3461213,31.0811965 84.4082477,31.1019517 C84.4703753,31.1227081 84.5268257,31.1576197 84.5731433,31.2039373 C84.6194609,31.2502549 84.6543797,31.3067089 84.6751349,31.3688365 C84.6958901,31.4309641 84.7019141,31.4970661 84.6927377,31.5619225 L84.6927377,33.7238043 L86.854601,33.7238043 C86.9194574,33.7146291 86.9855582,33.7206555 87.0476857,33.7414107 C87.1098121,33.7621659 87.1662637,33.7970823 87.2125801,33.8433999 C87.2588977,33.8897175 87.2938165,33.9461691 87.3145717,34.0082967 C87.3353269,34.0704243 87.3413521,34.1365287 87.3321757,34.2013851 L87.3321757,35.3098408 C87.3413521,35.3746984 87.3353269,35.4407992 87.3145717,35.5029268 C87.2938165,35.5650544 87.2588977,35.621506 87.2125801,35.6678237 C87.1662637,35.7141413 87.1098121,35.7490565 87.0476857,35.7698129 C86.9855582,35.7905681 86.9194574,35.7965957 86.854601,35.7874193 L84.6809465,35.7874193 L84.6809465,40.3686416 C84.6809465,40.7754693 84.7811753,41.0624109 84.9855701,41.2275009 C85.1899648,41.3925897 85.5338968,41.4770973 86.0173683,41.4770973 C86.2149051,41.4766425 86.4120806,41.4602109 86.6069678,41.4279645 C86.7524858,41.4023673 86.8995686,41.3866113 87.0472057,41.3807973 C87.2633917,41.3807973 87.3714841,41.5203381 87.3714841,41.8013817 L87.3714841,42.7368862 C87.3820297,42.887677 87.3557209,43.0387666 87.2948329,43.1771219 C87.2111857,43.2884963 87.0881593,43.3637207 86.950901,43.3874147 C86.6689154,43.4696987 86.3811818,43.5307931 86.0900907,43.5701903 C85.7532543,43.6149623 85.4138116,43.6372847 85.0740124,43.6370148 L85.0740124,43.6370148 Z M91.4138467,43.4839331 L89.578219,43.4839331 C89.5133626,43.4931095 89.4472558,43.4870843 89.3851282,43.4663291 C89.3230006,43.4455727 89.266549,43.4106611 89.2202326,43.3643435 C89.173915,43.3180247 89.1390022,43.2615683 89.118247,43.1994407 C89.0974906,43.1373131 89.0914606,43.071211 89.100637,43.0063546 L89.100637,29.8149516 C89.0914606,29.750094 89.0974906,29.6839932 89.118247,29.6218656 C89.1390022,29.559738 89.173915,29.5032828 89.2202326,29.4569652 C89.266549,29.4106476 89.3230006,29.3757312 89.3851282,29.3549771 C89.4472558,29.3342219 89.5133626,29.3281967 89.578219,29.3373731 L91.4138467,29.3373731 C91.4787031,29.3281967 91.5448039,29.3342219 91.6069315,29.3549771 C91.669059,29.3757312 91.7255094,29.4106476 91.7718282,29.4569652 C91.8181446,29.5032828 91.8530574,29.559738 91.8738126,29.6218656 C91.894569,29.6839932 91.900599,29.750094 91.8914226,29.8149516 L91.8914226,34.5927076 C92.8863581,33.8499663 94.0912275,33.4419219 95.3327341,33.4272591 C96.2367912,33.4272591 96.9344855,33.6729267 97.4258206,34.1642631 C97.9171557,34.6555996 98.1621657,35.3532964 98.1608565,36.2573561 L98.1608565,43.0043878 C98.1700329,43.0692442 98.1640077,43.1353511 98.1432525,43.1974787 C98.1224973,43.2596063 98.0875785,43.3160579 98.0412609,43.3623755 C97.9949433,43.4086931 97.9384917,43.4436059 97.8763653,43.4643623 C97.8142377,43.4851175 97.7481369,43.4911475 97.6832793,43.4819711 L95.8476528,43.4819711 C95.7827964,43.4911475 95.7166944,43.4851175 95.6545669,43.4643623 C95.5924405,43.4436059 95.5359829,43.4086931 95.4896653,43.3623755 C95.4433477,43.3160579 95.4084349,43.2596063 95.3876797,43.1974787 C95.3669245,43.1353511 95.3609005,43.0692442 95.3700769,43.0043878 L95.3700769,37.0867326 C95.3700769,36.0804749 94.904945,35.5766908 93.9746835,35.5753804 C93.2323396,35.5885168 92.5093349,35.8142861 91.8914226,36.2259089 L91.8914226,43.0122502 C91.8995946,43.0766566 91.8928158,43.1420795 91.8716118,43.2034415 C91.850409,43.2648035 91.8153498,43.3204559 91.7691582,43.3660763 C91.7229678,43.4116979 91.6668846,43.4460623 91.6052647,43.4665031 C91.5436435,43.4869427 91.4781451,43.4929031 91.4138467,43.4839331 L91.4138467,43.4839331 Z M23.6911272,84.0048931 C34.4438012,90.2699592 47.7441096,94.0372539 61.482778,94.0372539 C70.7501882,94.0372539 80.9355803,92.1123206 90.3061341,88.1334359 C91.719195,87.5347978 92.9053433,89.0675183 91.5232267,90.089334 C83.1634747,96.2615069 71.0389921,99.5488616 60.6060629,99.5488616 C45.9803619,99.5488616 32.8038239,94.1353059 22.835039,85.1299196 C22.0511511,84.4229072 22.7525246,83.4578623 23.6911272,84.0048931 Z M98.5674404,83.3908987 C99.4854151,84.5262476 98.3250597,92.3962826 93.8434899,96.1480961 C93.1524304,96.7260929 92.4974693,96.4164521 92.8017425,95.6526713 C93.8125443,93.1290987 96.0713772,87.4833178 94.9986878,86.1105765 L94.9986878,86.1157377 C93.9311559,84.7481588 87.9282288,85.46549 85.2361924,85.7906133 C84.4213613,85.8886665 84.2924322,85.176494 85.0299052,84.6552656 C89.8157481,81.2905025 97.659781,82.2607098 98.5674404,83.3908987 Z" id="Combined-Shape" fill="#FFFFFF"></path>
                    </g>
                </g>
            </g>
        </g>
    </g>
</svg>